Coordinates
version=1
nRows=21
nColumns=34
inDegrees=no

Units are S.I. units (second, meters, Newtons, ...)
If the header above contains a line with 'inDegrees', this indicates whether rotational values are in degrees (yes) or radians (no).

endheader
time	pelvis_tilt	pelvis_list	pelvis_rotation	pelvis_tx	pelvis_ty	pelvis_tz	hip_flexion_r	hip_adduction_r	hip_rotation_r	knee_angle_r	ankle_angle_r	subtalar_angle_r	mtp_angle_r	hip_flexion_l	hip_adduction_l	hip_rotation_l	knee_angle_l	ankle_angle_l	subtalar_angle_l	mtp_angle_l	lumbar_extension	lumbar_bending	lumbar_rotation	arm_flex_r	arm_add_r	arm_rot_r	elbow_flex_r	pro_sup_r	arm_flex_l	arm_add_l	arm_rot_l	elbow_flex_l	pro_sup_l
0	0.14229	-0.0242213	0.0129794	0.032735	1.11629	-0.230797	0.270392	0.0494072	-0.194149	0.229523	-0.0834712	-0.0313364	-0.0400151	-0.420982	-0.00580626	-0.222897	0.346632	0.128494	-0.129121	-0.0996638	-0.348928	0.127085	-0.0746099	-0.173904	-0.174739	-0.247372	0.711966	2.08289	-0.140923	-0.145928	-0.0983934	0.813131	2.0254
0.01	0.137316	-0.0299281	0.0108427	0.0463147	1.11886	-0.229483	0.276326	0.0550664	-0.185077	0.251693	-0.0782401	-0.0446042	-0.0401352	-0.393233	-0.0204044	-0.225408	0.407161	0.0851388	-0.161841	-0.0995852	-0.342636	0.134567	-0.0691376	-0.175135	-0.175447	-0.250351	0.708137	2.07858	-0.142456	-0.141186	-0.0990665	0.805436	2.03027
0.02	0.132613	-0.035503	0.0101612	0.0596509	1.12125	-0.22825	0.28041	0.0606663	-0.177943	0.27079	-0.0724021	-0.0564928	-0.0402553	-0.364193	-0.0350277	-0.225075	0.467182	0.0379545	-0.194869	-0.0995066	-0.336472	0.141872	-0.0649763	-0.176164	-0.176115	-0.252529	0.704944	2.07501	-0.144211	-0.137255	-0.0992633	0.799282	2.03549
0.03	0.128183	-0.040939	0.0109252	0.0727431	1.1235	-0.227089	0.28266	0.0661972	-0.172743	0.286814	-0.0659733	-0.0669957	-0.0403754	-0.33384	-0.0496615	-0.221937	0.526699	-0.0129489	-0.228157	-0.0994279	-0.330437	0.148988	-0.0621118	-0.176986	-0.176744	-0.253916	0.702395	2.0722	-0.146175	-0.134136	-0.0989723	0.794663	2.04103
0.04	0.124034	-0.0462157	0.0131041	0.0855861	1.12561	-0.22599	0.2831	0.0716284	-0.169466	0.299782	-0.058998	-0.0760893	-0.0404955	-0.302162	-0.0642499	-0.2161	0.585668	-0.067211	-0.261568	-0.0993493	-0.324546	0.15588	-0.0604979	-0.177599	-0.177336	-0.254545	0.700511	2.07012	-0.148306	-0.131832	-0.0981631	0.791556	2.04683
0.05	0.120197	-0.0513019	0.0166324	0.0981716	1.12761	-0.224947	0.281753	0.0768987	-0.168079	0.309747	-0.0515527	-0.0837245	-0.0406156	-0.269216	-0.0786684	-0.207765	0.643931	-0.124081	-0.294844	-0.0992706	-0.31885	0.162479	-0.060036	-0.178003	-0.177896	-0.254476	0.699324	2.06873	-0.15053	-0.130337	-0.0967898	0.7899	2.05281
0.06	0.116739	-0.0561407	0.0213944	0.110498	1.12952	-0.223956	0.278638	0.0819207	-0.168507	0.316819	-0.0437419	-0.0898317	-0.0407358	-0.235181	-0.0927164	-0.197234	0.701177	-0.182312	-0.327606	-0.099192	-0.313444	0.168682	-0.0605608	-0.178211	-0.178435	-0.253805	0.698866	2.06794	-0.152748	-0.129625	-0.0948069	0.789581	2.05882
0.07	0.113731	-0.0606581	0.0272166	0.122566	1.13135	-0.223015	0.273765	0.0865841	-0.170604	0.321192	-0.0356888	-0.0943391	-0.0408559	-0.200374	-0.106125	-0.184907	0.756946	-0.24013	-0.359369	-0.0991133	-0.308471	0.174357	-0.0618374	-0.178244	-0.178965	-0.252655	0.699153	2.06764	-0.154839	-0.129644	-0.0921917	0.790432	2.06471
0.08	0.111271	-0.0647429	0.0338603	0.134385	1.13313	-0.222121	0.267165	0.0907724	-0.174141	0.323136	-0.0275239	-0.0971984	-0.0409761	-0.165217	-0.118586	-0.171263	0.810677	-0.295313	-0.389586	-0.0990346	-0.304093	0.179362	-0.0635713	-0.17813	-0.1795	-0.251164	0.700173	2.06769	-0.156681	-0.130309	-0.0889684	0.792243	2.07029
0.09	0.109441	-0.0682619	0.0410383	0.145963	1.1349	-0.221269	0.2589	0.0943755	-0.178811	0.32299	-0.0193731	-0.0984066	-0.0410962	-0.130183	-0.129788	-0.156826	0.86178	-0.345388	-0.417702	-0.0989559	-0.30047	0.18355	-0.0654328	-0.177894	-0.180054	-0.249476	0.701873	2.06796	-0.158164	-0.131506	-0.0852236	0.794781	2.07541
0.1	0.108291	-0.0710784	0.0484369	0.157315	1.13666	-0.220453	0.249082	0.0973021	-0.184243	0.321133	-0.0113502	-0.0980209	-0.0412164	-0.0957325	-0.139448	-0.142124	0.909694	-0.387947	-0.4432	-0.0988771	-0.297725	0.186793	-0.0670907	-0.177557	-0.180635	-0.247727	0.704152	2.06842	-0.159209	-0.133095	-0.0811099	0.797816	2.07996
0.11	0.107828	-0.0730798	0.0557461	0.168455	1.13844	-0.219666	0.237873	0.0994896	-0.190044	0.317941	-0.00355185	-0.0961617	-0.0413365	-0.0622523	-0.147347	-0.127649	0.953941	-0.421006	-0.46565	-0.0987984	-0.295924	0.188984	-0.0682495	-0.177128	-0.181246	-0.246032	0.706878	2.06908	-0.15978	-0.134928	-0.0768338	0.801149	2.08383
0.12	0.108005	-0.0741962	0.0626896	0.179398	1.14024	-0.218901	0.225478	0.100913	-0.19584	0.313751	0.003943	-0.0930053	-0.0414567	-0.0300204	-0.153354	-0.113824	0.994145	-0.44334	-0.484734	-0.0987195	-0.295062	0.19006	-0.0686818	-0.176602	-0.181885	-0.244491	0.709895	2.07008	-0.159888	-0.136856	-0.0726311	0.804631	2.087
0.13	0.108726	-0.0744083	0.0690504	0.190159	1.14208	-0.218151	0.212118	0.101591	-0.201312	0.30883	0.0110735	-0.0887674	-0.0415769	0.000804968	-0.157436	-0.100971	1.03003	-0.454701	-0.500266	-0.0986407	-0.295067	0.190004	-0.0682496	-0.175969	-0.182543	-0.243179	0.713055	2.07165	-0.159589	-0.138749	-0.0687357	0.80817	2.08945
0.14	0.109857	-0.0737481	0.0746849	0.200754	1.14394	-0.217409	0.198017	0.101583	-0.206222	0.303357	0.0177972	-0.0836833	-0.041697	0.0301735	-0.159655	-0.0893039	1.06142	-0.455857	-0.512194	-0.0985618	-0.295814	0.188856	-0.0669107	-0.175211	-0.183208	-0.24216	0.716244	2.07404	-0.158973	-0.140501	-0.0653483	0.811735	2.09122
0.15	0.111246	-0.0722924	0.0795275	0.2112	1.14583	-0.216671	0.183377	0.100984	-0.210434	0.297424	0.0240933	-0.0779833	-0.0418172	0.0581179	-0.160151	-0.0789268	1.08819	-0.448438	-0.5206	-0.0984828	-0.297143	0.186702	-0.0647125	-0.174312	-0.183866	-0.241477	0.719406	2.07746	-0.158151	-0.142038	-0.0626136	0.815343	2.09232
0.16	0.112744	-0.0701504	0.0835834	0.221511	1.14771	-0.215936	0.168373	0.0999104	-0.213905	0.291059	0.0299677	-0.0718684	-0.0419374	0.0847234	-0.159119	-0.0698524	1.11029	-0.434614	-0.52568	-0.0984038	-0.298879	0.183669	-0.0617752	-0.173257	-0.184504	-0.24116	0.722557	2.082	-0.157238	-0.14332	-0.0606095	0.819046	2.09277
0.17	0.114214	-0.0674485	0.0869132	0.231701	1.14958	-0.215203	0.153151	0.0984868	-0.216682	0.284253	0.0354562	-0.0654898	-0.0420575	0.110099	-0.156786	-0.0620236	1.12772	-0.416698	-0.527725	-0.0983248	-0.300855	0.179908	-0.0582679	-0.172033	-0.185115	-0.241218	0.725786	2.08752	-0.156341	-0.144334	-0.05935	0.822908	2.09258
0.18	0.115549	-0.0643158	0.0896132	0.241782	1.15142	-0.214476	0.137836	0.0968303	-0.218882	0.276991	0.0406245	-0.0589371	-0.0421777	0.134354	-0.153386	-0.0553413	1.14052	-0.396766	-0.527077	-0.0982457	-0.302915	0.175582	-0.0543826	-0.170632	-0.1857	-0.241636	0.729235	2.09372	-0.155547	-0.145091	-0.058798	0.826991	2.09173
0.19	0.116671	-0.0608797	0.0917962	0.251763	1.1532	-0.21376	0.122537	0.0950418	-0.220665	0.269276	0.0455632	-0.052235	-0.0422979	0.157586	-0.149146	-0.0496894	1.14877	-0.376377	-0.524095	-0.0981666	-0.304932	0.170854	-0.0503105	-0.169052	-0.186273	-0.242373	0.733064	2.10006	-0.154916	-0.145613	-0.0588838	0.831337	2.0902
0.2	0.117524	-0.0572588	0.0935751	0.26165	1.1549	-0.213059	0.107355	0.0932027	-0.222217	0.26115	0.0503767	-0.0453519	-0.0424181	0.179867	-0.144275	-0.044956	1.15257	-0.35646	-0.519127	-0.0980875	-0.306808	0.165878	-0.0462234	-0.167292	-0.186858	-0.24336	0.737416	2.10596	-0.154481	-0.14593	-0.0595241	0.835954	2.088
